<mxfile host="app.diagrams.net" agent="Mozilla/5.0 (Windows NT 10.0; Win64; x64) AppleWebKit/537.36 (KHTML, like Gecko) Chrome/135.0.0.0 Safari/537.36" version="26.2.9">
  <diagram name="Page-1" id="6-U9oWj5JZpFFCg8RY4Y">
    <mxGraphModel dx="2680" dy="1003" grid="1" gridSize="10" guides="1" tooltips="1" connect="1" arrows="1" fold="1" page="1" pageScale="1" pageWidth="827" pageHeight="1169" math="0" shadow="0">
      <root>
        <mxCell id="0" />
        <mxCell id="1" parent="0" />
        <mxCell id="urKDHidlisGYxtg2ARkH-1" value="&lt;font style=&quot;font-size: 18px;&quot;&gt;MQTT&lt;br&gt;Broaker&lt;/font&gt;" style="ellipse;whiteSpace=wrap;html=1;aspect=fixed;shadow=1;fillColor=light-dark(#FFFFFF,#99CCFF);" parent="1" vertex="1">
          <mxGeometry x="380" y="400" width="80" height="80" as="geometry" />
        </mxCell>
        <mxCell id="urKDHidlisGYxtg2ARkH-2" value="Postgres" style="shape=cylinder3;whiteSpace=wrap;html=1;boundedLbl=1;backgroundOutline=1;size=15;" parent="1" vertex="1">
          <mxGeometry x="430" y="710" width="60" height="80" as="geometry" />
        </mxCell>
        <mxCell id="urKDHidlisGYxtg2ARkH-3" value="NodeRed" style="whiteSpace=wrap;html=1;aspect=fixed;" parent="1" vertex="1">
          <mxGeometry x="380" y="550" width="80" height="80" as="geometry" />
        </mxCell>
        <mxCell id="urKDHidlisGYxtg2ARkH-4" value="influxDB" style="shape=cylinder3;whiteSpace=wrap;html=1;boundedLbl=1;backgroundOutline=1;size=15;" parent="1" vertex="1">
          <mxGeometry x="360" y="710" width="60" height="80" as="geometry" />
        </mxCell>
        <mxCell id="urKDHidlisGYxtg2ARkH-5" value="MQTT Bridge&lt;br&gt;(Ask)" style="whiteSpace=wrap;html=1;aspect=fixed;" parent="1" vertex="1">
          <mxGeometry x="270" y="585" width="80" height="80" as="geometry" />
        </mxCell>
        <mxCell id="urKDHidlisGYxtg2ARkH-8" value="Discord" style="swimlane;whiteSpace=wrap;html=1;" parent="1" vertex="1">
          <mxGeometry x="275" y="860" width="70" height="85" as="geometry" />
        </mxCell>
        <mxCell id="urKDHidlisGYxtg2ARkH-9" value="" style="shape=flexArrow;endArrow=classic;startArrow=classic;html=1;rounded=0;entryX=0.5;entryY=0;entryDx=0;entryDy=0;entryPerimeter=0;exitX=0.863;exitY=1.025;exitDx=0;exitDy=0;exitPerimeter=0;" parent="1" source="urKDHidlisGYxtg2ARkH-3" target="urKDHidlisGYxtg2ARkH-2" edge="1">
          <mxGeometry width="100" height="100" relative="1" as="geometry">
            <mxPoint x="360" y="610" as="sourcePoint" />
            <mxPoint x="460" y="510" as="targetPoint" />
          </mxGeometry>
        </mxCell>
        <mxCell id="urKDHidlisGYxtg2ARkH-11" value="" style="shape=flexArrow;endArrow=classic;startArrow=classic;html=1;rounded=0;entryX=0.5;entryY=0;entryDx=0;entryDy=0;entryPerimeter=0;" parent="1" target="urKDHidlisGYxtg2ARkH-4" edge="1">
          <mxGeometry width="100" height="100" relative="1" as="geometry">
            <mxPoint x="400" y="630" as="sourcePoint" />
            <mxPoint x="460" y="510" as="targetPoint" />
          </mxGeometry>
        </mxCell>
        <mxCell id="urKDHidlisGYxtg2ARkH-12" value="" style="shape=flexArrow;endArrow=classic;startArrow=classic;html=1;rounded=0;entryX=0.5;entryY=1;entryDx=0;entryDy=0;exitX=0.5;exitY=0;exitDx=0;exitDy=0;" parent="1" source="urKDHidlisGYxtg2ARkH-3" target="urKDHidlisGYxtg2ARkH-1" edge="1">
          <mxGeometry width="100" height="100" relative="1" as="geometry">
            <mxPoint x="360" y="610" as="sourcePoint" />
            <mxPoint x="460" y="510" as="targetPoint" />
          </mxGeometry>
        </mxCell>
        <mxCell id="urKDHidlisGYxtg2ARkH-13" value="" style="shape=flexArrow;endArrow=classic;startArrow=classic;html=1;rounded=0;entryX=0;entryY=1;entryDx=0;entryDy=0;exitX=0.5;exitY=0;exitDx=0;exitDy=0;" parent="1" source="urKDHidlisGYxtg2ARkH-5" target="urKDHidlisGYxtg2ARkH-1" edge="1">
          <mxGeometry width="100" height="100" relative="1" as="geometry">
            <mxPoint x="360" y="610" as="sourcePoint" />
            <mxPoint x="460" y="510" as="targetPoint" />
          </mxGeometry>
        </mxCell>
        <mxCell id="urKDHidlisGYxtg2ARkH-14" value="" style="shape=flexArrow;endArrow=classic;startArrow=classic;html=1;rounded=0;exitX=0.5;exitY=0;exitDx=0;exitDy=0;entryX=0.5;entryY=1;entryDx=0;entryDy=0;" parent="1" source="urKDHidlisGYxtg2ARkH-8" target="urKDHidlisGYxtg2ARkH-5" edge="1">
          <mxGeometry width="100" height="100" relative="1" as="geometry">
            <mxPoint x="360" y="610" as="sourcePoint" />
            <mxPoint x="460" y="510" as="targetPoint" />
          </mxGeometry>
        </mxCell>
        <mxCell id="urKDHidlisGYxtg2ARkH-15" value="&lt;font style=&quot;font-size: 18px;&quot;&gt;/iot&lt;/font&gt;" style="ellipse;whiteSpace=wrap;html=1;strokeColor=light-dark(#000000,#007FFF);" parent="1" vertex="1">
          <mxGeometry x="230" y="290" width="50" height="50" as="geometry" />
        </mxCell>
        <mxCell id="urKDHidlisGYxtg2ARkH-16" value="&lt;font style=&quot;font-size: 18px;&quot;&gt;/spill&lt;/font&gt;" style="ellipse;whiteSpace=wrap;html=1;strokeColor=light-dark(#000000,#007FFF);" parent="1" vertex="1">
          <mxGeometry x="395" y="290" width="50" height="50" as="geometry" />
        </mxCell>
        <mxCell id="urKDHidlisGYxtg2ARkH-17" value="&lt;font style=&quot;font-size: 18px;&quot;&gt;/bruker&lt;/font&gt;" style="ellipse;whiteSpace=wrap;html=1;strokeColor=light-dark(#000000,#007FFF);" parent="1" vertex="1">
          <mxGeometry x="535" y="500" width="80" height="80" as="geometry" />
        </mxCell>
        <mxCell id="urKDHidlisGYxtg2ARkH-21" value="" style="endArrow=classic;startArrow=classic;html=1;rounded=0;exitX=0.5;exitY=1;exitDx=0;exitDy=0;" parent="1" source="urKDHidlisGYxtg2ARkH-26" edge="1">
          <mxGeometry width="50" height="50" relative="1" as="geometry">
            <mxPoint x="450" y="240" as="sourcePoint" />
            <mxPoint x="420" y="290" as="targetPoint" />
          </mxGeometry>
        </mxCell>
        <mxCell id="urKDHidlisGYxtg2ARkH-23" value="" style="endArrow=classic;startArrow=classic;html=1;rounded=0;exitX=1;exitY=1;exitDx=0;exitDy=0;entryX=0.025;entryY=0.238;entryDx=0;entryDy=0;entryPerimeter=0;" parent="1" source="urKDHidlisGYxtg2ARkH-1" target="urKDHidlisGYxtg2ARkH-17" edge="1">
          <mxGeometry width="50" height="50" relative="1" as="geometry">
            <mxPoint x="480" y="520" as="sourcePoint" />
            <mxPoint x="510" y="390" as="targetPoint" />
          </mxGeometry>
        </mxCell>
        <mxCell id="urKDHidlisGYxtg2ARkH-24" value="" style="endArrow=classic;startArrow=classic;html=1;rounded=0;entryX=0.5;entryY=1;entryDx=0;entryDy=0;exitX=0.5;exitY=0;exitDx=0;exitDy=0;" parent="1" source="urKDHidlisGYxtg2ARkH-1" target="urKDHidlisGYxtg2ARkH-16" edge="1">
          <mxGeometry width="50" height="50" relative="1" as="geometry">
            <mxPoint x="370" y="350" as="sourcePoint" />
            <mxPoint x="420" y="300" as="targetPoint" />
          </mxGeometry>
        </mxCell>
        <mxCell id="urKDHidlisGYxtg2ARkH-25" value="" style="endArrow=classic;startArrow=classic;html=1;rounded=0;entryX=0;entryY=0;entryDx=0;entryDy=0;exitX=1.05;exitY=0.6;exitDx=0;exitDy=0;exitPerimeter=0;" parent="1" source="urKDHidlisGYxtg2ARkH-15" target="urKDHidlisGYxtg2ARkH-1" edge="1">
          <mxGeometry width="50" height="50" relative="1" as="geometry">
            <mxPoint x="280" y="450" as="sourcePoint" />
            <mxPoint x="330" y="400" as="targetPoint" />
          </mxGeometry>
        </mxCell>
        <mxCell id="urKDHidlisGYxtg2ARkH-26" value="&lt;font style=&quot;font-size: 18px;&quot;&gt;/foosball&lt;/font&gt;" style="ellipse;whiteSpace=wrap;html=1;strokeColor=light-dark(#000000,#007FFF);" parent="1" vertex="1">
          <mxGeometry x="380" y="185" width="80" height="80" as="geometry" />
        </mxCell>
        <mxCell id="urKDHidlisGYxtg2ARkH-28" value="&lt;font style=&quot;font-size: 18px;&quot;&gt;/rfid&lt;/font&gt;" style="ellipse;whiteSpace=wrap;html=1;strokeColor=light-dark(#000000,#007FFF);" parent="1" vertex="1">
          <mxGeometry x="650" y="440" width="50" height="50" as="geometry" />
        </mxCell>
        <mxCell id="urKDHidlisGYxtg2ARkH-29" value="&lt;font style=&quot;font-size: 18px;&quot;&gt;/navn&lt;/font&gt;" style="ellipse;whiteSpace=wrap;html=1;strokeColor=light-dark(#000000,#007FFF);" parent="1" vertex="1">
          <mxGeometry x="650" y="520" width="50" height="50" as="geometry" />
        </mxCell>
        <mxCell id="urKDHidlisGYxtg2ARkH-30" value="&lt;font style=&quot;font-size: 18px;&quot;&gt;/elo&lt;/font&gt;" style="ellipse;whiteSpace=wrap;html=1;strokeColor=light-dark(#000000,#007FFF);" parent="1" vertex="1">
          <mxGeometry x="650" y="590" width="50" height="50" as="geometry" />
        </mxCell>
        <mxCell id="urKDHidlisGYxtg2ARkH-27" value="&lt;font style=&quot;font-size: 18px;&quot;&gt;/sjakk&lt;/font&gt;" style="ellipse;whiteSpace=wrap;html=1;strokeColor=light-dark(#000000,#007FFF);" parent="1" vertex="1">
          <mxGeometry x="510" y="290" width="60" height="60" as="geometry" />
        </mxCell>
        <mxCell id="urKDHidlisGYxtg2ARkH-32" value="&lt;span style=&quot;font-size: 18px;&quot;&gt;/wc&lt;/span&gt;" style="ellipse;whiteSpace=wrap;html=1;strokeColor=light-dark(#000000,#007FFF);" parent="1" vertex="1">
          <mxGeometry x="130" y="220" width="60" height="60" as="geometry" />
        </mxCell>
        <mxCell id="urKDHidlisGYxtg2ARkH-33" value="&lt;font style=&quot;font-size: 18px;&quot;&gt;/klasserom&lt;/font&gt;" style="ellipse;whiteSpace=wrap;html=1;strokeColor=light-dark(#000000,#007FFF);" parent="1" vertex="1">
          <mxGeometry x="100" y="330" width="100" height="100" as="geometry" />
        </mxCell>
        <mxCell id="urKDHidlisGYxtg2ARkH-35" value="" style="endArrow=classic;startArrow=classic;html=1;rounded=0;entryX=0;entryY=1;entryDx=0;entryDy=0;exitX=0.97;exitY=0.3;exitDx=0;exitDy=0;exitPerimeter=0;" parent="1" source="urKDHidlisGYxtg2ARkH-33" target="urKDHidlisGYxtg2ARkH-15" edge="1">
          <mxGeometry width="50" height="50" relative="1" as="geometry">
            <mxPoint x="110" y="570" as="sourcePoint" />
            <mxPoint x="160" y="520" as="targetPoint" />
          </mxGeometry>
        </mxCell>
        <mxCell id="urKDHidlisGYxtg2ARkH-36" value="" style="endArrow=classic;startArrow=classic;html=1;rounded=0;entryX=0;entryY=0;entryDx=0;entryDy=0;exitX=0.983;exitY=0.767;exitDx=0;exitDy=0;exitPerimeter=0;" parent="1" source="urKDHidlisGYxtg2ARkH-32" target="urKDHidlisGYxtg2ARkH-15" edge="1">
          <mxGeometry width="50" height="50" relative="1" as="geometry">
            <mxPoint x="260" y="350" as="sourcePoint" />
            <mxPoint x="220" y="490" as="targetPoint" />
          </mxGeometry>
        </mxCell>
        <mxCell id="urKDHidlisGYxtg2ARkH-38" value="&lt;font style=&quot;font-size: 18px;&quot;&gt;/micro&lt;/font&gt;" style="ellipse;whiteSpace=wrap;html=1;strokeColor=light-dark(#000000,#007FFF);" parent="1" vertex="1">
          <mxGeometry x="110" y="490" width="100" height="100" as="geometry" />
        </mxCell>
        <mxCell id="urKDHidlisGYxtg2ARkH-39" value="&lt;font style=&quot;font-size: 18px;&quot;&gt;/sensor&lt;/font&gt;" style="ellipse;whiteSpace=wrap;html=1;strokeColor=light-dark(#000000,#007FFF);" parent="1" vertex="1">
          <mxGeometry x="40" y="115" width="70" height="70" as="geometry" />
        </mxCell>
        <mxCell id="urKDHidlisGYxtg2ARkH-40" value="&lt;font style=&quot;font-size: 18px;&quot;&gt;/sensor&lt;/font&gt;" style="ellipse;whiteSpace=wrap;html=1;strokeColor=light-dark(#000000,#007FFF);" parent="1" vertex="1">
          <mxGeometry x="20" y="260" width="70" height="70" as="geometry" />
        </mxCell>
        <mxCell id="urKDHidlisGYxtg2ARkH-41" value="&lt;font style=&quot;font-size: 18px;&quot;&gt;/trekk&lt;/font&gt;" style="ellipse;whiteSpace=wrap;html=1;strokeColor=light-dark(#000000,#007FFF);" parent="1" vertex="1">
          <mxGeometry x="650" y="240" width="50" height="50" as="geometry" />
        </mxCell>
        <mxCell id="urKDHidlisGYxtg2ARkH-43" value="&lt;font style=&quot;font-size: 18px;&quot;&gt;/ferdig&lt;/font&gt;" style="ellipse;whiteSpace=wrap;html=1;strokeColor=light-dark(#000000,#007FFF);" parent="1" vertex="1">
          <mxGeometry x="590" y="180" width="60" height="60" as="geometry" />
        </mxCell>
        <mxCell id="urKDHidlisGYxtg2ARkH-44" value="&lt;font style=&quot;font-size: 18px;&quot;&gt;/spill&lt;/font&gt;" style="ellipse;whiteSpace=wrap;html=1;strokeColor=light-dark(#000000,#007FFF);" parent="1" vertex="1">
          <mxGeometry x="660" y="300" width="50" height="50" as="geometry" />
        </mxCell>
        <mxCell id="urKDHidlisGYxtg2ARkH-45" value="" style="endArrow=classic;startArrow=classic;html=1;rounded=0;entryX=0.06;entryY=0.68;entryDx=0;entryDy=0;entryPerimeter=0;exitX=1;exitY=0;exitDx=0;exitDy=0;" parent="1" source="urKDHidlisGYxtg2ARkH-27" target="urKDHidlisGYxtg2ARkH-41" edge="1">
          <mxGeometry width="50" height="50" relative="1" as="geometry">
            <mxPoint x="530" y="640" as="sourcePoint" />
            <mxPoint x="580" y="590" as="targetPoint" />
          </mxGeometry>
        </mxCell>
        <mxCell id="urKDHidlisGYxtg2ARkH-46" value="" style="endArrow=classic;startArrow=classic;html=1;rounded=0;entryX=0;entryY=1;entryDx=0;entryDy=0;exitX=0.5;exitY=0;exitDx=0;exitDy=0;" parent="1" source="urKDHidlisGYxtg2ARkH-27" target="urKDHidlisGYxtg2ARkH-43" edge="1">
          <mxGeometry width="50" height="50" relative="1" as="geometry">
            <mxPoint x="620" y="240" as="sourcePoint" />
            <mxPoint x="670" y="190" as="targetPoint" />
          </mxGeometry>
        </mxCell>
        <mxCell id="urKDHidlisGYxtg2ARkH-47" value="&lt;font style=&quot;font-size: 18px;&quot;&gt;/maal&lt;/font&gt;" style="ellipse;whiteSpace=wrap;html=1;strokeColor=light-dark(#000000,#007FFF);" parent="1" vertex="1">
          <mxGeometry x="400" y="95" width="50" height="50" as="geometry" />
        </mxCell>
        <mxCell id="urKDHidlisGYxtg2ARkH-48" value="&lt;font style=&quot;font-size: 18px;&quot;&gt;/ferdig&lt;/font&gt;" style="ellipse;whiteSpace=wrap;html=1;strokeColor=light-dark(#000000,#007FFF);" parent="1" vertex="1">
          <mxGeometry x="310" y="90" width="60" height="60" as="geometry" />
        </mxCell>
        <mxCell id="urKDHidlisGYxtg2ARkH-49" value="&lt;font style=&quot;font-size: 18px;&quot;&gt;/spill&lt;/font&gt;" style="ellipse;whiteSpace=wrap;html=1;strokeColor=light-dark(#000000,#007FFF);" parent="1" vertex="1">
          <mxGeometry x="470" y="100" width="50" height="50" as="geometry" />
        </mxCell>
        <mxCell id="urKDHidlisGYxtg2ARkH-52" value="" style="endArrow=classic;startArrow=classic;html=1;rounded=0;entryX=0;entryY=1;entryDx=0;entryDy=0;exitX=1;exitY=0;exitDx=0;exitDy=0;" parent="1" source="urKDHidlisGYxtg2ARkH-26" target="urKDHidlisGYxtg2ARkH-49" edge="1">
          <mxGeometry width="50" height="50" relative="1" as="geometry">
            <mxPoint x="540" y="250" as="sourcePoint" />
            <mxPoint x="560" y="230" as="targetPoint" />
          </mxGeometry>
        </mxCell>
        <mxCell id="urKDHidlisGYxtg2ARkH-53" value="" style="endArrow=classic;startArrow=classic;html=1;rounded=0;entryX=0.3;entryY=1.02;entryDx=0;entryDy=0;exitX=0.5;exitY=0;exitDx=0;exitDy=0;entryPerimeter=0;" parent="1" source="urKDHidlisGYxtg2ARkH-26" target="urKDHidlisGYxtg2ARkH-47" edge="1">
          <mxGeometry width="50" height="50" relative="1" as="geometry">
            <mxPoint x="546" y="267" as="sourcePoint" />
            <mxPoint x="587" y="233" as="targetPoint" />
          </mxGeometry>
        </mxCell>
        <mxCell id="urKDHidlisGYxtg2ARkH-54" value="" style="endArrow=classic;startArrow=classic;html=1;rounded=0;entryX=1;entryY=1;entryDx=0;entryDy=0;exitX=0;exitY=0;exitDx=0;exitDy=0;" parent="1" source="urKDHidlisGYxtg2ARkH-26" target="urKDHidlisGYxtg2ARkH-48" edge="1">
          <mxGeometry width="50" height="50" relative="1" as="geometry">
            <mxPoint x="556" y="277" as="sourcePoint" />
            <mxPoint x="480" y="180" as="targetPoint" />
          </mxGeometry>
        </mxCell>
        <mxCell id="urKDHidlisGYxtg2ARkH-56" value="" style="endArrow=classic;startArrow=classic;html=1;rounded=0;exitX=0.614;exitY=1;exitDx=0;exitDy=0;exitPerimeter=0;" parent="1" source="urKDHidlisGYxtg2ARkH-39" target="urKDHidlisGYxtg2ARkH-32" edge="1">
          <mxGeometry width="50" height="50" relative="1" as="geometry">
            <mxPoint x="390" y="590" as="sourcePoint" />
            <mxPoint x="440" y="540" as="targetPoint" />
          </mxGeometry>
        </mxCell>
        <mxCell id="urKDHidlisGYxtg2ARkH-59" value="" style="endArrow=classic;startArrow=classic;html=1;rounded=0;entryX=0.5;entryY=1;entryDx=0;entryDy=0;exitX=0.41;exitY=0;exitDx=0;exitDy=0;exitPerimeter=0;" parent="1" source="urKDHidlisGYxtg2ARkH-38" target="urKDHidlisGYxtg2ARkH-33" edge="1">
          <mxGeometry width="50" height="50" relative="1" as="geometry">
            <mxPoint x="30" y="490" as="sourcePoint" />
            <mxPoint x="80" y="440" as="targetPoint" />
          </mxGeometry>
        </mxCell>
        <mxCell id="urKDHidlisGYxtg2ARkH-60" value="" style="endArrow=classic;startArrow=classic;html=1;rounded=0;entryX=1;entryY=1;entryDx=0;entryDy=0;exitX=0;exitY=0;exitDx=0;exitDy=0;" parent="1" source="urKDHidlisGYxtg2ARkH-33" target="urKDHidlisGYxtg2ARkH-40" edge="1">
          <mxGeometry width="50" height="50" relative="1" as="geometry">
            <mxPoint x="40" y="500" as="sourcePoint" />
            <mxPoint x="90" y="450" as="targetPoint" />
          </mxGeometry>
        </mxCell>
        <mxCell id="urKDHidlisGYxtg2ARkH-61" value="" style="endArrow=classic;startArrow=classic;html=1;rounded=0;entryX=0;entryY=0.5;entryDx=0;entryDy=0;exitX=1;exitY=0.5;exitDx=0;exitDy=0;" parent="1" target="urKDHidlisGYxtg2ARkH-29" edge="1" source="urKDHidlisGYxtg2ARkH-17">
          <mxGeometry width="50" height="50" relative="1" as="geometry">
            <mxPoint x="620" y="510" as="sourcePoint" />
            <mxPoint x="100" y="460" as="targetPoint" />
          </mxGeometry>
        </mxCell>
        <mxCell id="GDrD-Kpo9oYSKBDEFug5-2" value="&lt;font style=&quot;font-size: 18px;&quot;&gt;/current&lt;/font&gt;" style="ellipse;whiteSpace=wrap;html=1;strokeColor=light-dark(#000000,#007FFF);" vertex="1" parent="1">
          <mxGeometry x="10" y="530" width="70" height="70" as="geometry" />
        </mxCell>
        <mxCell id="GDrD-Kpo9oYSKBDEFug5-3" value="&lt;font style=&quot;font-size: 18px;&quot;&gt;/rfid&lt;/font&gt;" style="ellipse;whiteSpace=wrap;html=1;strokeColor=light-dark(#000000,#007FFF);" vertex="1" parent="1">
          <mxGeometry x="40" y="615" width="50" height="50" as="geometry" />
        </mxCell>
        <mxCell id="GDrD-Kpo9oYSKBDEFug5-4" value="&lt;font style=&quot;font-size: 18px;&quot;&gt;/access&lt;/font&gt;" style="ellipse;whiteSpace=wrap;html=1;strokeColor=light-dark(#000000,#007FFF);" vertex="1" parent="1">
          <mxGeometry x="120" y="630" width="70" height="70" as="geometry" />
        </mxCell>
        <mxCell id="GDrD-Kpo9oYSKBDEFug5-6" value="" style="endArrow=classic;html=1;rounded=0;entryX=0;entryY=1;entryDx=0;entryDy=0;exitX=1;exitY=0;exitDx=0;exitDy=0;" edge="1" parent="1" source="GDrD-Kpo9oYSKBDEFug5-3" target="urKDHidlisGYxtg2ARkH-38">
          <mxGeometry width="50" height="50" relative="1" as="geometry">
            <mxPoint x="390" y="590" as="sourcePoint" />
            <mxPoint x="440" y="540" as="targetPoint" />
          </mxGeometry>
        </mxCell>
        <mxCell id="GDrD-Kpo9oYSKBDEFug5-8" value="" style="endArrow=classic;html=1;rounded=0;entryX=0.5;entryY=0;entryDx=0;entryDy=0;exitX=0.5;exitY=1;exitDx=0;exitDy=0;" edge="1" parent="1" source="urKDHidlisGYxtg2ARkH-38" target="GDrD-Kpo9oYSKBDEFug5-4">
          <mxGeometry width="50" height="50" relative="1" as="geometry">
            <mxPoint x="390" y="590" as="sourcePoint" />
            <mxPoint x="440" y="540" as="targetPoint" />
          </mxGeometry>
        </mxCell>
        <mxCell id="GDrD-Kpo9oYSKBDEFug5-10" value="" style="endArrow=none;dashed=1;html=1;rounded=0;" edge="1" parent="1">
          <mxGeometry width="50" height="50" relative="1" as="geometry">
            <mxPoint x="520" y="380" as="sourcePoint" />
            <mxPoint x="520" y="810" as="targetPoint" />
          </mxGeometry>
        </mxCell>
        <mxCell id="GDrD-Kpo9oYSKBDEFug5-11" value="" style="endArrow=none;dashed=1;html=1;rounded=0;" edge="1" parent="1">
          <mxGeometry width="50" height="50" relative="1" as="geometry">
            <mxPoint x="250" y="810" as="sourcePoint" />
            <mxPoint x="520" y="810" as="targetPoint" />
          </mxGeometry>
        </mxCell>
        <mxCell id="GDrD-Kpo9oYSKBDEFug5-12" value="" style="endArrow=none;dashed=1;html=1;rounded=0;" edge="1" parent="1">
          <mxGeometry width="50" height="50" relative="1" as="geometry">
            <mxPoint x="250" y="380" as="sourcePoint" />
            <mxPoint x="250" y="810" as="targetPoint" />
          </mxGeometry>
        </mxCell>
        <mxCell id="GDrD-Kpo9oYSKBDEFug5-13" value="" style="endArrow=none;dashed=1;html=1;rounded=0;" edge="1" parent="1">
          <mxGeometry width="50" height="50" relative="1" as="geometry">
            <mxPoint x="250" y="380" as="sourcePoint" />
            <mxPoint x="520" y="380" as="targetPoint" />
          </mxGeometry>
        </mxCell>
        <mxCell id="GDrD-Kpo9oYSKBDEFug5-14" value="Server&lt;div&gt;192.168.1.100&lt;/div&gt;" style="text;html=1;align=center;verticalAlign=middle;whiteSpace=wrap;rounded=0;" vertex="1" parent="1">
          <mxGeometry x="270" y="430" width="60" height="30" as="geometry" />
        </mxCell>
        <mxCell id="GDrD-Kpo9oYSKBDEFug5-15" value="" style="endArrow=classic;startArrow=classic;html=1;rounded=0;entryX=0;entryY=0.5;entryDx=0;entryDy=0;exitX=1;exitY=0.5;exitDx=0;exitDy=0;" edge="1" parent="1" source="urKDHidlisGYxtg2ARkH-16" target="urKDHidlisGYxtg2ARkH-27">
          <mxGeometry width="50" height="50" relative="1" as="geometry">
            <mxPoint x="430" y="410" as="sourcePoint" />
            <mxPoint x="430" y="350" as="targetPoint" />
          </mxGeometry>
        </mxCell>
        <mxCell id="GDrD-Kpo9oYSKBDEFug5-16" value="" style="endArrow=classic;startArrow=classic;html=1;rounded=0;entryX=0;entryY=0.5;entryDx=0;entryDy=0;exitX=0.943;exitY=0.329;exitDx=0;exitDy=0;exitPerimeter=0;" edge="1" parent="1" source="GDrD-Kpo9oYSKBDEFug5-2" target="urKDHidlisGYxtg2ARkH-38">
          <mxGeometry width="50" height="50" relative="1" as="geometry">
            <mxPoint x="440" y="420" as="sourcePoint" />
            <mxPoint x="440" y="360" as="targetPoint" />
          </mxGeometry>
        </mxCell>
        <mxCell id="GDrD-Kpo9oYSKBDEFug5-17" value="&lt;span style=&quot;font-size: 18px;&quot;&gt;/lager&lt;/span&gt;" style="ellipse;whiteSpace=wrap;html=1;strokeColor=light-dark(#000000,#007FFF);" vertex="1" parent="1">
          <mxGeometry x="210" y="160" width="60" height="60" as="geometry" />
        </mxCell>
        <mxCell id="GDrD-Kpo9oYSKBDEFug5-18" value="" style="endArrow=classic;startArrow=classic;html=1;rounded=0;entryX=0.5;entryY=0;entryDx=0;entryDy=0;exitX=0.683;exitY=1;exitDx=0;exitDy=0;exitPerimeter=0;" edge="1" parent="1" source="GDrD-Kpo9oYSKBDEFug5-17" target="urKDHidlisGYxtg2ARkH-15">
          <mxGeometry width="50" height="50" relative="1" as="geometry">
            <mxPoint x="240" y="244" as="sourcePoint" />
            <mxPoint x="293" y="265" as="targetPoint" />
          </mxGeometry>
        </mxCell>
        <mxCell id="GDrD-Kpo9oYSKBDEFug5-19" value="" style="endArrow=classic;startArrow=classic;html=1;rounded=0;entryX=0.083;entryY=0.35;entryDx=0;entryDy=0;entryPerimeter=0;exitX=1;exitY=1;exitDx=0;exitDy=0;" edge="1" parent="1" source="GDrD-Kpo9oYSKBDEFug5-21" target="GDrD-Kpo9oYSKBDEFug5-17">
          <mxGeometry width="50" height="50" relative="1" as="geometry">
            <mxPoint x="180" y="150" as="sourcePoint" />
            <mxPoint x="257" y="317" as="targetPoint" />
          </mxGeometry>
        </mxCell>
        <mxCell id="GDrD-Kpo9oYSKBDEFug5-20" value="" style="endArrow=classic;startArrow=classic;html=1;rounded=0;entryX=0.5;entryY=0;entryDx=0;entryDy=0;exitX=0.5;exitY=1;exitDx=0;exitDy=0;" edge="1" parent="1" source="GDrD-Kpo9oYSKBDEFug5-22" target="GDrD-Kpo9oYSKBDEFug5-17">
          <mxGeometry width="50" height="50" relative="1" as="geometry">
            <mxPoint x="230" y="105" as="sourcePoint" />
            <mxPoint x="245" y="135.5" as="targetPoint" />
          </mxGeometry>
        </mxCell>
        <mxCell id="GDrD-Kpo9oYSKBDEFug5-21" value="&lt;font style=&quot;font-size: 18px;&quot;&gt;/sensor&lt;/font&gt;" style="ellipse;whiteSpace=wrap;html=1;strokeColor=light-dark(#000000,#007FFF);" vertex="1" parent="1">
          <mxGeometry x="125" y="70" width="70" height="70" as="geometry" />
        </mxCell>
        <mxCell id="GDrD-Kpo9oYSKBDEFug5-22" value="&lt;font style=&quot;font-size: 18px;&quot;&gt;/3d_print&lt;/font&gt;" style="ellipse;whiteSpace=wrap;html=1;strokeColor=light-dark(#000000,#007FFF);" vertex="1" parent="1">
          <mxGeometry x="200" y="35" width="85" height="80" as="geometry" />
        </mxCell>
        <mxCell id="GDrD-Kpo9oYSKBDEFug5-23" value="" style="endArrow=classic;startArrow=classic;html=1;rounded=0;entryX=0;entryY=0.5;entryDx=0;entryDy=0;exitX=1;exitY=0.5;exitDx=0;exitDy=0;" edge="1" parent="1" source="urKDHidlisGYxtg2ARkH-27" target="urKDHidlisGYxtg2ARkH-44">
          <mxGeometry width="50" height="50" relative="1" as="geometry">
            <mxPoint x="571" y="309" as="sourcePoint" />
            <mxPoint x="663" y="284" as="targetPoint" />
          </mxGeometry>
        </mxCell>
        <mxCell id="GDrD-Kpo9oYSKBDEFug5-24" value="" style="endArrow=classic;html=1;rounded=0;entryX=1;entryY=0;entryDx=0;entryDy=0;exitX=0;exitY=1;exitDx=0;exitDy=0;" edge="1" parent="1" source="urKDHidlisGYxtg2ARkH-28" target="urKDHidlisGYxtg2ARkH-17">
          <mxGeometry width="50" height="50" relative="1" as="geometry">
            <mxPoint x="390" y="590" as="sourcePoint" />
            <mxPoint x="440" y="540" as="targetPoint" />
          </mxGeometry>
        </mxCell>
        <mxCell id="GDrD-Kpo9oYSKBDEFug5-25" value="" style="endArrow=classic;html=1;rounded=0;entryX=0;entryY=0;entryDx=0;entryDy=0;exitX=1;exitY=1;exitDx=0;exitDy=0;" edge="1" parent="1" source="urKDHidlisGYxtg2ARkH-17" target="urKDHidlisGYxtg2ARkH-30">
          <mxGeometry width="50" height="50" relative="1" as="geometry">
            <mxPoint x="390" y="590" as="sourcePoint" />
            <mxPoint x="440" y="540" as="targetPoint" />
          </mxGeometry>
        </mxCell>
      </root>
    </mxGraphModel>
  </diagram>
</mxfile>
